<svg xmlns="http://www.w3.org/2000/svg" width="1600" height="980" viewBox="0 0 1600 980">
<style>
.t { font-family: Menlo, Monaco, monospace; fill: #e8f0ff; }
.m { font-family: Menlo, Monaco, monospace; fill: #93a8cf; }
.a { font-family: Menlo, Monaco, monospace; fill: #4cc2ff; }
</style>
<rect x="0" y="0" width="1600" height="980" fill="#0b1220"/>
<rect x="24" y="20" width="1552" height="64" rx="18" ry="18" fill="#101a2d" stroke="#22385d" stroke-width="2"/><text x="52" y="58" class="t" font-size="28" font-weight="700">Noeis</text><rect x="220" y="34" width="600" height="36" rx="14" ry="14" fill="#1a2a47" stroke="#22385d" stroke-width="2"/><text x="244" y="57" class="m" font-size="15" font-weight="400">Search only in current context</text><rect x="1270" y="34" width="100" height="36" rx="16" ry="16" fill="#1a2a47" stroke="#22385d" stroke-width="2"/><text x="1284" y="60" class="m" font-size="16" font-weight="600">Focus</text><rect x="1384" y="34" width="100" height="36" rx="16" ry="16" fill="#1a2a47" stroke="#22385d" stroke-width="2"/><text x="1398" y="60" class="m" font-size="16" font-weight="600">Profile</text><rect x="1496" y="34" width="72" height="36" rx="16" ry="16" fill="#17365d" stroke="#2a69a8" stroke-width="2"/><text x="1514" y="58" class="t" font-size="15" font-weight="700">Quit</text><text x="40" y="122" class="t" font-size="44" font-weight="700">Direction B: Single-Column Focus Mode</text><text x="40" y="158" class="m" font-size="20" font-weight="500">Hide index/context by default; open drawers only on demand.</text><rect x="28" y="196" width="96" height="748" rx="18" ry="18" fill="#101a2d" stroke="#22385d" stroke-width="2"/><rect x="46" y="238" width="60" height="60" rx="12" ry="12" fill="#17365d" stroke="#22385d" stroke-width="2"/><text x="68" y="276" class="t" font-size="24" font-weight="700">T</text><rect x="46" y="350" width="60" height="60" rx="12" ry="12" fill="#1a2a47" stroke="#22385d" stroke-width="2"/><text x="68" y="388" class="t" font-size="24" font-weight="700">L</text><rect x="46" y="462" width="60" height="60" rx="12" ry="12" fill="#1a2a47" stroke="#22385d" stroke-width="2"/><text x="68" y="500" class="t" font-size="24" font-weight="700">C</text><rect x="46" y="574" width="60" height="60" rx="12" ry="12" fill="#1a2a47" stroke="#22385d" stroke-width="2"/><text x="68" y="612" class="t" font-size="24" font-weight="700">M</text><rect x="46" y="686" width="60" height="60" rx="12" ry="12" fill="#1a2a47" stroke="#22385d" stroke-width="2"/><text x="68" y="724" class="t" font-size="24" font-weight="700">R</text><rect x="46" y="798" width="60" height="60" rx="12" ry="12" fill="#1a2a47" stroke="#22385d" stroke-width="2"/><text x="68" y="836" class="t" font-size="24" font-weight="700">S</text><rect x="144" y="196" width="1314" height="748" rx="18" ry="18" fill="#101a2d" stroke="#22385d" stroke-width="2"/><text x="184" y="232" class="t" font-size="30" font-weight="700">Think / Concepts / Research Paper Analysis</text><rect x="1268" y="218" width="90" height="42" rx="16" ry="16" fill="#1a2a47" stroke="#22385d" stroke-width="2"/><text x="1282" y="244" class="m" font-size="16" font-weight="600">Index</text><rect x="1370" y="218" width="80" height="42" rx="16" ry="16" fill="#1a2a47" stroke="#22385d" stroke-width="2"/><text x="1384" y="244" class="m" font-size="16" font-weight="600">Context</text><rect x="184" y="286" width="158" height="42" rx="16" ry="16" fill="#17365d" stroke="#22385d" stroke-width="2"/><text x="198" y="312" class="t" font-size="16" font-weight="600">Focus</text><rect x="360" y="286" width="158" height="42" rx="16" ry="16" fill="#1a2a47" stroke="#22385d" stroke-width="2"/><text x="374" y="312" class="m" font-size="16" font-weight="600">References</text><rect x="536" y="286" width="158" height="42" rx="16" ry="16" fill="#1a2a47" stroke="#22385d" stroke-width="2"/><text x="550" y="312" class="m" font-size="16" font-weight="600">Agent</text><rect x="712" y="286" width="158" height="42" rx="16" ry="16" fill="#1a2a47" stroke="#22385d" stroke-width="2"/><text x="726" y="312" class="m" font-size="16" font-weight="600">History</text><rect x="184" y="356" width="1234" height="314" rx="16" ry="16" fill="#13203a" stroke="#22385d" stroke-width="2"/><text x="212" y="390" class="t" font-size="28" font-weight="700">Workspace</text><text x="212" y="422" class="m" font-size="16" font-weight="400">Default state emphasizes one artifact, not many simultaneous widgets.</text><line x1="212" y1="470" x2="1328" y2="470" stroke="#2a3f66" stroke-width="2"/><line x1="212" y1="490" x2="1328" y2="490" stroke="#2a3f66" stroke-width="2"/><line x1="212" y1="510" x2="1328" y2="510" stroke="#2a3f66" stroke-width="2"/><line x1="212" y1="530" x2="1328" y2="530" stroke="#2a3f66" stroke-width="2"/><line x1="212" y1="550" x2="1328" y2="550" stroke="#2a3f66" stroke-width="2"/><line x1="212" y1="570" x2="1328" y2="570" stroke="#2a3f66" stroke-width="2"/><line x1="212" y1="590" x2="1328" y2="590" stroke="#2a3f66" stroke-width="2"/><line x1="212" y1="610" x2="1328" y2="610" stroke="#2a3f66" stroke-width="2"/><line x1="212" y1="630" x2="1328" y2="630" stroke="#2a3f66" stroke-width="2"/><rect x="184" y="696" width="1234" height="228" rx="16" ry="16" fill="#13203a" stroke="#22385d" stroke-width="2"/><text x="212" y="730" class="t" font-size="28" font-weight="700">Quick actions (quiet)</text><rect x="212" y="776" width="216" height="44" rx="16" ry="16" fill="#1a2a47" stroke="#22385d" stroke-width="2"/><text x="226" y="802" class="m" font-size="16" font-weight="600">Return later</text><rect x="444" y="776" width="216" height="44" rx="16" ry="16" fill="#1a2a47" stroke="#22385d" stroke-width="2"/><text x="458" y="802" class="m" font-size="16" font-weight="600">Synthesize</text><rect x="676" y="776" width="216" height="44" rx="16" ry="16" fill="#1a2a47" stroke="#22385d" stroke-width="2"/><text x="690" y="802" class="m" font-size="16" font-weight="600">Export markdown</text><rect x="908" y="776" width="216" height="44" rx="16" ry="16" fill="#1a2a47" stroke="#22385d" stroke-width="2"/><text x="922" y="802" class="m" font-size="16" font-weight="600">Share</text><text x="212" y="860" class="a" font-size="20" font-weight="700">Secondary complexity lives behind progressive disclosure and keyboard flow.</text><rect x="1010" y="356" width="448" height="284" rx="16" ry="16" fill="#0f1f37" stroke="#2a69a8" stroke-width="2"/><text x="1032" y="388" class="t" font-size="22" font-weight="700">Context drawer (temporary)</text><text x="1032" y="426" class="m" font-size="16" font-weight="400">- Context block 1</text><text x="1032" y="458" class="m" font-size="16" font-weight="400">- Context block 2</text><text x="1032" y="490" class="m" font-size="16" font-weight="400">- Context block 3</text><text x="1032" y="522" class="m" font-size="16" font-weight="400">- Context block 4</text><text x="1032" y="554" class="m" font-size="16" font-weight="400">- Context block 5</text></svg>