<svg width="1600" height="900" viewBox="0 0 1600 900" fill="none" xmlns="http://www.w3.org/2000/svg">
  <rect width="1600" height="900" fill="#F4EFE6"/>
  <rect x="34" y="20" width="1532" height="54" rx="16" fill="#FBF8F2" stroke="#D9CCB6"/>
  <rect x="210" y="31" width="460" height="31" rx="16" fill="#F1EADF" stroke="#D9CCB6"/>
  <text x="230" y="50" font-size="14" fill="#8F806D" font-family="Arial">Search notes and highlights...</text>

  <rect x="170" y="96" width="1260" height="770" rx="26" fill="#FBF8F2" stroke="#D9CCB6"/>
  <text x="230" y="146" font-size="58" fill="#3F3428" font-family="Georgia">Flounder Mode</text>
  <text x="232" y="184" font-size="15" fill="#8F806D" font-family="Arial">Immersive reading  •  6 min left</text>

  <rect x="230" y="226" width="1140" height="594" rx="18" fill="#FFFDF8" stroke="#DDCFB8"/>
  <g font-family="Georgia" fill="#3F3428" font-size="23">
    <text x="322" y="280">Kevin Kelly is not known for one big thing, and that is the point of the work.</text>
    <text x="322" y="328">He is as intelligent, hard-working, and patient as history's iconic makers.</text>
    <rect x="320" y="344" width="770" height="32" rx="6" fill="#E6DECB" stroke="#D5C7AD"/>
    <text x="322" y="368">Instead, in his words, he works Hollywood style in a series of projects.</text>
    <text x="322" y="416">Kelly was an editor of the Whole Earth Catalog in the early 1980s.</text>
    <text x="322" y="464">He helped start WELL, one of the first online communities in 1985.</text>
    <text x="322" y="512">He co-founded WIRED magazine in 1993 and wrote a dozen books.</text>
    <rect x="320" y="528" width="730" height="32" rx="6" fill="#E6DECB" stroke="#D5C7AD"/>
    <text x="322" y="552">He rides a bike across the U.S. and draws deep analogies from movement.</text>
    <text x="322" y="600">This mode hides surrounding chrome and surfaces only meaningful actions.</text>
  </g>

  <rect x="580" y="836" width="440" height="36" rx="16" fill="#EFE5D2" stroke="#DAC8A8"/>
  <text x="602" y="859" font-size="14" fill="#7C694F" font-family="Arial">Add highlight   •   Ask question   •   Save note</text>
  <text x="230" y="846" font-size="14" fill="#7C694F" font-family="Arial">Option C  Immersive mode: sidebars collapse while reading, floating actions appear on selection/scroll.</text>
</svg>
